<?xml version="1.0" standalone="no"?>
<!DOCTYPE svg PUBLIC "-//W3C//DTD SVG 20010904//EN"
 "http://www.w3.org/TR/2001/REC-SVG-20010904/DTD/svg10.dtd">
<svg version="1.0" xmlns="http://www.w3.org/2000/svg"
 width="4096.000000pt" height="4096.000000pt" viewBox="0 0 4096.000000 4096.000000"
 preserveAspectRatio="xMidYMid meet">

<defs>
<linearGradient id="logo-grad" x1="0%" y1="0%" x2="100%" y2="100%">
<stop offset="0%" stop-color="#1E3A8A" />
<stop offset="100%" stop-color="#06B6D4" />
</linearGradient>
</defs>
<g transform="translate(0.000000,4096.000000) scale(0.100000,-0.100000)"
fill="url(#logo-grad)" stroke="none">
<path d="M19930 33024 c-1006 -56 -1838 -186 -2685 -419 -744 -205 -1221 -373
-1829 -646 -219 -99 -706 -340 -887 -439 -743 -409 -1520 -953 -2209 -1544
-678 -583 -1342 -1290 -1866 -1991 -502 -670 -854 -1235 -1201 -1930 -590
-1178 -952 -2293 -1158 -3557 -178 -1096 -215 -2005 -125 -3080 73 -873 269
-1843 558 -2758 245 -776 689 -1760 1125 -2490 507 -849 1130 -1668 1795
-2357 851 -882 1643 -1508 2732 -2160 863 -517 1873 -950 2895 -1243 486 -139
678 -186 1046 -255 562 -105 987 -161 1579 -207 224 -17 1371 -18 1605 0 396
29 742 70 1165 138 1007 160 2129 496 3040 909 268 121 810 391 1010 503 621
346 1353 844 1868 1270 1007 832 1877 1794 2587 2862 288 434 497 794 733
1265 446 891 707 1594 967 2609 176 688 296 1490 346 2311 15 251 15 948 0
1245 -98 1903 -581 3645 -1477 5322 -235 440 -667 1118 -974 1528 -822 1099
-1722 1983 -2820 2772 -363 260 -441 312 -860 568 -890 544 -1806 955 -2759
1240 -763 228 -1310 345 -2076 444 -576 75 -776 87 -1470 91 -324 1 -619 1
-655 -1z m1030 -584 c581 -23 941 -61 1526 -160 653 -110 1053 -210 1699 -424
750 -249 1464 -566 2110 -936 677 -388 1250 -786 1808 -1253 485 -405 1194
-1108 1487 -1472 36 -44 119 -145 185 -225 515 -621 1018 -1403 1429 -2220
301 -598 590 -1332 771 -1956 104 -358 170 -633 239 -994 258 -1351 299 -2503
136 -3825 -27 -218 -144 -882 -201 -1140 -71 -319 -193 -749 -335 -1173 -231
-693 -631 -1559 -1022 -2212 -611 -1020 -1271 -1849 -2094 -2631 -532 -505
-1047 -911 -1718 -1355 -428 -283 -857 -527 -1345 -765 -316 -154 -450 -212
-845 -367 -885 -348 -1612 -541 -2595 -691 -600 -92 -1040 -124 -1695 -125
-823 0 -1537 73 -2395 244 -1350 270 -2694 809 -3882 1556 -563 354 -1026 684
-1358 969 -549 469 -1053 970 -1456 1445 -539 636 -813 1023 -1288 1818 -274
459 -656 1259 -853 1786 -173 464 -366 1104 -458 1526 -154 697 -244 1374
-281 2102 -11 224 -7 1013 6 1128 2 25 12 153 21 285 48 722 196 1582 389
2255 242 845 510 1522 908 2300 192 374 518 919 769 1285 264 384 633 852 986
1250 414 468 1060 1070 1567 1461 430 332 1011 718 1510 1004 488 280 1302
655 1765 815 781 268 1339 415 2041 535 537 91 930 132 1574 163 154 8 675 6
895 -3z"/>
<path d="M12152 26983 l-33 -4 33 -42 c18 -23 343 -415 723 -872 380 -456 754
-906 830 -1000 77 -93 193 -235 260 -314 66 -79 154 -185 195 -235 174 -209
442 -530 550 -657 63 -74 192 -227 285 -339 94 -112 254 -302 358 -423 103
-122 187 -225 187 -231 0 -6 -28 -29 -62 -51 -141 -90 -377 -276 -703 -553
-252 -214 -792 -764 -1027 -1044 -249 -297 -425 -516 -561 -701 l-28 -37 87
-118 c86 -115 396 -503 491 -613 202 -237 324 -367 554 -594 423 -416 826
-758 1175 -995 56 -39 106 -75 109 -80 8 -13 -32 -69 -181 -250 -131 -160
-1266 -1575 -1479 -1844 -66 -84 -179 -224 -251 -312 -117 -142 -642 -793
-920 -1139 -57 -71 -130 -162 -161 -202 -70 -86 -540 -665 -721 -888 -72 -88
-127 -164 -123 -168 4 -4 1162 -7 2573 -5 2262 3 2567 5 2583 18 10 8 63 71
119 140 55 69 186 229 291 355 105 127 224 271 265 321 41 50 154 185 250 300
96 115 209 252 250 304 121 154 335 415 460 560 64 74 145 171 180 215 36 44
175 212 310 373 135 162 271 326 303 365 210 258 413 503 482 582 76 87 233
277 499 604 65 80 132 161 149 180 l30 35 31 -35 c17 -20 106 -130 197 -245
92 -115 226 -279 299 -364 72 -85 199 -236 280 -335 82 -99 215 -259 297 -355
324 -384 419 -498 688 -824 154 -187 336 -408 404 -490 69 -83 161 -196 204
-251 109 -136 357 -437 557 -674 153 -182 438 -529 574 -698 l58 -73 2574 0
c1416 0 2574 3 2574 6 0 4 -22 32 -48 63 -27 31 -129 158 -228 282 -98 124
-251 315 -339 424 -88 109 -207 257 -265 330 -58 73 -222 278 -366 456 -539
670 -739 919 -862 1073 -120 149 -631 781 -927 1146 -132 162 -649 808 -753
941 -30 38 -51 72 -48 77 3 5 66 50 140 100 237 162 631 483 866 707 58 55
141 134 185 176 208 196 515 526 720 772 33 40 114 137 181 217 121 145 276
347 308 401 l17 28 -109 143 c-268 354 -581 719 -943 1098 -362 378 -798 759
-1187 1037 -72 52 -134 98 -136 102 -3 4 54 76 125 161 72 85 188 225 258 310
71 85 195 234 277 332 82 97 252 299 378 450 125 150 306 365 401 478 95 113
222 266 282 340 131 163 150 186 663 800 62 74 163 195 224 269 61 74 176 211
256 306 356 422 551 665 544 677 -3 4 -1195 8 -2648 8 l-2644 0 -58 -72 c-33
-40 -136 -163 -229 -273 -94 -110 -279 -328 -411 -485 -132 -157 -274 -325
-316 -375 -86 -102 -468 -560 -663 -795 -71 -87 -389 -467 -705 -846 -316
-379 -597 -718 -625 -753 -27 -36 -53 -64 -58 -63 -4 1 -52 57 -106 124 -54
68 -196 240 -316 383 -372 446 -398 478 -470 565 -38 47 -167 200 -285 340
-118 140 -277 329 -352 420 -590 714 -1201 1443 -1436 1712 l-103 118 -2612
-2 c-1437 -1 -2627 -3 -2645 -5z m14001 -1259 c3 -5 -47 -70 -110 -144 -224
-263 -430 -507 -599 -710 -94 -113 -250 -299 -348 -415 -98 -115 -309 -369
-469 -562 -159 -194 -294 -353 -298 -353 -5 0 -59 28 -121 62 -192 105 -484
242 -685 322 -105 42 -195 76 -200 76 -5 0 -68 -71 -139 -157 -71 -86 -212
-256 -314 -377 -340 -407 -415 -497 -417 -504 -2 -4 93 -40 210 -81 376 -131
837 -327 837 -356 0 -7 -7 -19 -17 -26 -15 -13 -247 -290 -517 -618 -61 -74
-151 -182 -199 -240 -118 -141 -258 -310 -474 -572 -400 -486 -483 -588 -483
-594 0 -6 57 -77 496 -615 110 -135 238 -294 286 -355 48 -60 135 -168 193
-240 271 -330 398 -489 482 -600 50 -66 116 -151 146 -190 44 -55 54 -72 44
-82 -24 -23 -628 -267 -874 -353 -68 -23 -123 -47 -123 -53 0 -5 76 -100 169
-211 178 -212 512 -619 615 -748 33 -42 66 -77 72 -77 12 -1 188 70 368 148
65 28 224 105 354 171 129 66 240 120 246 120 7 0 149 -172 316 -382 168 -210
343 -429 390 -488 436 -544 782 -978 866 -1085 56 -72 159 -200 228 -285 239
-292 476 -589 476 -594 0 -3 -425 -6 -944 -6 l-943 0 -149 183 c-81 100 -207
252 -279 337 -72 85 -201 241 -287 345 -86 105 -200 242 -254 305 -113 134
-624 748 -874 1051 -382 462 -544 657 -685 824 -88 105 -320 383 -515 620
-315 381 -656 792 -1025 1233 -66 78 -124 142 -130 142 -5 -1 -51 -51 -102
-113 -50 -62 -149 -182 -220 -268 -70 -87 -225 -275 -343 -420 -223 -272 -385
-467 -764 -918 -297 -354 -389 -465 -746 -896 -168 -203 -339 -410 -380 -459
-42 -50 -114 -138 -160 -196 -104 -129 -420 -508 -675 -810 -104 -124 -269
-321 -365 -439 -167 -203 -218 -267 -355 -440 l-61 -76 -947 -3 c-521 -1 -947
2 -947 6 0 4 21 35 48 68 26 32 71 91 101 129 30 39 116 144 191 235 128 155
1329 1655 1724 2154 99 125 185 231 192 237 8 7 89 -29 270 -119 143 -70 295
-143 339 -161 44 -18 145 -60 224 -94 l144 -61 19 25 c11 13 97 116 191 228
488 580 657 785 650 792 -5 4 -82 33 -173 65 -91 31 -286 108 -435 170 -377
157 -409 172 -398 187 27 36 503 628 633 787 82 102 185 230 228 284 42 55
102 129 133 165 30 36 102 125 159 196 57 72 172 213 255 315 202 247 248 309
242 323 -3 7 -114 145 -248 307 -133 162 -301 367 -373 455 -71 88 -164 201
-206 250 -41 50 -207 250 -367 445 -161 195 -337 407 -392 470 -55 63 -100
120 -101 126 0 13 2 14 256 119 181 75 315 126 667 255 64 24 117 47 117 51 0
11 -61 86 -488 599 -195 234 -360 429 -367 434 -8 6 -60 -10 -155 -48 -278
-111 -469 -203 -820 -392 -14 -8 -30 -14 -37 -14 -10 0 -147 160 -418 488
-378 458 -1064 1282 -1322 1590 -40 48 -73 90 -73 94 0 4 454 8 1009 8 l1009
0 38 -47 c22 -27 140 -167 264 -313 123 -146 265 -314 315 -374 276 -334 568
-684 710 -851 89 -104 249 -296 356 -426 107 -130 295 -357 419 -506 283 -339
519 -623 679 -817 68 -83 163 -196 211 -251 48 -55 140 -167 205 -250 66 -82
173 -215 240 -295 66 -80 136 -165 155 -190 18 -25 37 -49 40 -53 4 -4 45 38
91 95 296 365 651 794 966 1168 39 47 173 209 298 360 125 151 282 340 349
420 66 79 192 230 280 335 206 247 407 488 581 695 77 91 185 222 241 291 55
68 193 232 305 363 112 132 280 330 373 440 l169 201 766 5 c421 3 877 7 1012
9 136 1 249 -1 252 -5z m-9757 -3876 c42 -60 140 -181 229 -283 34 -38 155
-185 270 -325 115 -140 243 -295 285 -345 87 -102 319 -382 338 -406 11 -14
-13 -46 -165 -230 -98 -118 -288 -351 -422 -519 -228 -285 -448 -551 -532
-644 l-36 -40 -69 49 c-164 117 -533 413 -749 601 -160 140 -619 592 -726 716
l-49 56 112 124 c245 268 525 540 855 828 168 147 586 470 608 470 7 0 30 -24
51 -52z m8409 -87 c94 -68 215 -161 270 -205 139 -112 465 -408 669 -607 160
-156 437 -449 444 -470 4 -11 -284 -315 -490 -516 -163 -160 -397 -370 -573
-512 -136 -110 -483 -374 -514 -390 -18 -10 -28 0 -103 92 -46 57 -171 211
-279 343 -107 131 -298 367 -425 524 -126 156 -259 322 -297 368 -39 49 -64
88 -60 95 4 6 106 131 228 278 360 435 447 540 509 619 194 244 429 519 439
513 7 -4 89 -63 182 -132z"/>
</g>
</svg>
